<svg xmlns="http://www.w3.org/2000/svg" width="375" viewBox="0 0 375 375" height="375" version="1.0"><defs><clipPath id="a"><path d="M 62.257812 24.28125 L 312.492188 24.28125 L 312.492188 208.238281 L 62.257812 208.238281 Z M 62.257812 24.28125"/></clipPath><clipPath id="b"><path d="M 62.257812 239.425781 L 312.492188 239.425781 L 312.492188 273.164062 L 62.257812 273.164062 Z M 62.257812 239.425781"/></clipPath><clipPath id="c"><path d="M 82 44.042969 L 293 44.042969 L 293 255 L 82 255 Z M 82 44.042969"/></clipPath></defs><g clip-path="url(#a)"><path fill="#545454" d="M 187.332031 274.519531 C 118.402344 274.519531 62.257812 218.375 62.257812 149.359375 C 62.257812 80.34375 118.402344 24.28125 187.332031 24.28125 C 256.265625 24.28125 312.410156 80.425781 312.410156 149.359375 C 312.492188 218.375 256.347656 274.519531 187.332031 274.519531 Z M 187.332031 26.398438 C 119.503906 26.398438 64.375 81.527344 64.375 149.359375 C 64.375 217.1875 119.585938 272.402344 187.332031 272.402344 C 255.078125 272.402344 310.375 217.1875 310.375 149.359375 C 310.375 81.527344 255.164062 26.398438 187.332031 26.398438 Z M 187.332031 26.398438"/></g><g clip-path="url(#b)"><path fill="#545454" d="M 187.332031 273.164062 C 118.402344 273.164062 62.257812 217.019531 62.257812 148.003906 C 62.257812 78.988281 118.402344 22.929688 187.332031 22.929688 C 256.265625 22.929688 312.410156 79.074219 312.410156 148.003906 C 312.492188 217.019531 256.347656 273.164062 187.332031 273.164062 Z M 187.332031 25.046875 C 119.503906 25.046875 64.375 80.175781 64.375 148.003906 C 64.375 215.835938 119.585938 271.046875 187.332031 271.046875 C 255.078125 271.046875 310.375 215.835938 310.375 148.003906 C 310.375 80.175781 255.164062 25.046875 187.332031 25.046875 Z M 187.332031 25.046875"/></g><g clip-path="url(#c)"><path fill="#545454" d="M 188.105469 254.261719 C 131.152344 254.261719 84.769531 208.199219 84.164062 151.34375 L 95.511719 151.34375 C 96.078125 202.105469 137.371094 242.953125 188.105469 242.953125 C 188.703125 242.953125 189.191406 242.464844 189.191406 241.867188 C 189.191406 241.269531 188.703125 240.785156 188.105469 240.785156 C 138.601562 240.785156 98.238281 200.785156 97.675781 151.34375 L 178.40625 151.34375 C 178.90625 155.882812 182.488281 159.464844 187.023438 159.964844 L 187.023438 194.332031 L 174.246094 207.070312 C 173.769531 207.429688 173.671875 208.109375 174.03125 208.585938 C 174.390625 209.066406 175.066406 209.164062 175.546875 208.804688 C 175.628906 208.742188 175.703125 208.667969 175.761719 208.585938 L 186.980469 197.363281 L 186.980469 206.289062 L 174.246094 219.074219 C 173.769531 219.433594 173.671875 220.109375 174.03125 220.589844 C 174.390625 221.070312 175.066406 221.164062 175.546875 220.808594 C 175.628906 220.746094 175.703125 220.671875 175.761719 220.589844 L 186.980469 209.367188 L 186.980469 218.292969 L 174.246094 231.035156 C 173.769531 231.394531 173.671875 232.070312 174.03125 232.550781 C 174.390625 233.03125 175.066406 233.125 175.546875 232.769531 C 175.628906 232.707031 175.703125 232.632812 175.761719 232.550781 L 186.980469 221.328125 L 186.980469 227.4375 C 186.980469 228.035156 187.464844 228.519531 188.0625 228.519531 C 188.660156 228.519531 189.144531 228.035156 189.144531 227.4375 L 189.144531 221.371094 L 200.40625 232.59375 C 200.886719 232.953125 201.5625 232.855469 201.921875 232.378906 C 202.210938 231.992188 202.210938 231.460938 201.921875 231.078125 L 189.191406 218.292969 L 189.191406 209.367188 L 200.40625 220.589844 C 200.886719 220.949219 201.5625 220.851562 201.921875 220.375 C 202.210938 219.988281 202.210938 219.460938 201.921875 219.074219 L 189.144531 206.289062 L 189.144531 197.363281 L 200.363281 208.585938 C 200.839844 208.945312 201.519531 208.847656 201.878906 208.371094 C 202.167969 207.984375 202.167969 207.457031 201.878906 207.070312 L 189.101562 194.285156 L 189.101562 159.964844 C 191.101562 159.734375 192.976562 158.886719 194.472656 157.539062 L 237.652344 196.410156 C 233.011719 201.421875 227.636719 205.703125 221.714844 209.105469 C 221.167969 209.355469 220.925781 209.996094 221.175781 210.539062 C 221.421875 211.085938 222.0625 211.328125 222.609375 211.082031 C 222.671875 211.050781 222.738281 211.015625 222.796875 210.96875 C 228.917969 207.449219 234.464844 203.023438 239.257812 197.839844 L 264.503906 220.589844 C 244.878906 242.027344 217.164062 254.246094 188.105469 254.261719 Z M 197.808594 151.34375 L 255.886719 151.34375 C 255.613281 167.34375 249.707031 182.734375 239.210938 194.804688 L 196.03125 155.933594 C 197.007812 154.582031 197.621094 153 197.808594 151.34375 Z M 189.191406 142.761719 C 193.328125 143.394531 196.167969 147.261719 195.539062 151.402344 C 195.039062 154.679688 192.464844 157.253906 189.191406 157.753906 Z M 188.105469 91.28125 C 187.507812 91.28125 187.023438 91.765625 187.023438 92.363281 L 187.023438 116.242188 L 177.539062 104.0625 L 188.105469 73.730469 L 198.671875 104.109375 L 189.191406 116.285156 L 189.191406 92.363281 C 189.191406 91.765625 188.703125 91.28125 188.105469 91.28125 Z M 187.023438 142.761719 L 187.023438 157.753906 C 182.886719 157.125 180.042969 153.253906 180.675781 149.113281 C 181.171875 145.835938 183.746094 143.261719 187.023438 142.761719 Z M 84.164062 149.175781 C 84.398438 124.230469 93.628906 100.210938 110.148438 81.53125 L 135.398438 104.28125 C 124.550781 116.746094 118.445312 132.644531 118.160156 149.175781 Z M 120.328125 149.175781 C 120.597656 133.175781 126.503906 117.785156 137 105.710938 L 180.179688 144.582031 C 179.203125 145.933594 178.59375 147.515625 178.40625 149.175781 Z M 266.066406 218.988281 L 240.816406 196.238281 C 251.675781 183.757812 257.777344 167.84375 258.050781 151.296875 L 292.050781 151.296875 C 291.824219 176.257812 282.59375 200.292969 266.066406 218.988281 Z M 188.105469 46.257812 C 245.058594 46.257812 291.445312 92.320312 292.050781 149.175781 L 280.703125 149.175781 C 280.132812 98.414062 238.84375 57.5625 188.105469 57.566406 C 187.507812 57.566406 187.023438 58.050781 187.023438 58.648438 C 187.023438 59.246094 187.507812 59.730469 188.105469 59.730469 C 237.609375 59.730469 277.976562 99.730469 278.539062 149.175781 L 197.808594 149.175781 C 197.308594 144.636719 193.726562 141.050781 189.191406 140.550781 L 189.191406 119.75 L 200.710938 104.929688 C 200.945312 104.636719 201.011719 104.242188 200.882812 103.890625 L 189.144531 70.046875 C 188.941406 69.484375 188.320312 69.191406 187.757812 69.398438 C 187.457031 69.507812 187.21875 69.746094 187.109375 70.046875 L 175.332031 103.933594 C 175.203125 104.289062 175.269531 104.679688 175.503906 104.976562 L 187.023438 119.792969 L 187.023438 140.59375 C 185.027344 140.828125 183.148438 141.675781 181.652344 143.019531 L 138.472656 104.152344 C 143.113281 99.136719 148.488281 94.855469 154.410156 91.453125 C 154.957031 91.207031 155.199219 90.566406 154.953125 90.019531 C 154.707031 89.472656 154.066406 89.230469 153.519531 89.480469 C 153.453125 89.507812 153.390625 89.546875 153.328125 89.589844 C 147.210938 93.109375 141.660156 97.535156 136.871094 102.71875 L 111.621094 79.925781 C 131.269531 58.464844 159.019531 46.246094 188.105469 46.257812 Z M 188.105469 44.089844 C 129.503906 44.109375 82.011719 91.65625 82.03125 150.296875 C 82.042969 178.429688 93.214844 205.414062 113.09375 225.316406 C 155.425781 265.863281 222.59375 264.398438 263.117188 222.039062 C 302.402344 180.984375 302.402344 116.257812 263.117188 75.203125 C 243.269531 55.222656 216.261719 44.023438 188.105469 44.089844"/></g><g fill="#545454"><g><g><path d="M 17.398438 -5.507812 C 15.195312 -2.230469 13.898438 -0.453125 10.761719 -0.453125 L 5.453125 -0.453125 L 5.453125 -9.660156 L 9.40625 -9.660156 C 12.398438 -9.660156 13.246094 -8.898438 13.925781 -6.808594 L 13.925781 -12.964844 C 13.246094 -10.875 12.398438 -10.113281 9.40625 -10.113281 L 5.453125 -10.113281 L 5.453125 -19.320312 L 10.195312 -19.320312 C 13.332031 -19.320312 14.488281 -17.90625 16.382812 -15.222656 L 16.496094 -15.28125 L 15.5625 -19.773438 L 0.421875 -19.773438 L 0.421875 -19.628906 C 1.582031 -19.488281 2.570312 -19.179688 2.570312 -18.160156 L 2.570312 -2.175781 C 2.570312 -1.15625 1.582031 -0.566406 0.421875 -0.140625 L 0.421875 0 L 15 0 L 15.957031 0.621094 L 16.128906 0 L 17.511719 -5.453125 Z M 17.398438 -5.507812" transform="translate(49.823 320.216)"/></g></g></g><g fill="#545454"><g><g><path d="M 20.789062 -19.660156 L 20.789062 -19.773438 L 14.460938 -19.773438 L 14.460938 -19.660156 C 16.296875 -19.375 17.570312 -18.78125 16.015625 -16.917969 L 11.382812 -11.296875 L 7.144531 -17.203125 L 5.59375 -19.773438 L 0.847656 -19.773438 L 0.847656 -19.660156 C 1.78125 -19.488281 2.683594 -18.8125 3.839844 -17.203125 L 9.601562 -9.152344 L 4.460938 -2.882812 C 2.9375 -1.046875 1.976562 -0.453125 0.421875 -0.113281 L 0.421875 0 L 6.75 0 L 6.75 -0.113281 C 4.914062 -0.394531 3.644531 -0.988281 5.195312 -2.851562 L 9.96875 -8.644531 L 13.980469 -3.050781 L 15.84375 0 L 20.421875 0 L 20.421875 -0.113281 C 19.460938 -0.367188 18.414062 -1.46875 17.285156 -3.050781 L 11.722656 -10.789062 L 16.75 -16.890625 C 18.273438 -18.726562 19.234375 -19.320312 20.789062 -19.660156 Z M 20.789062 -19.660156" transform="translate(90.1 320.216)"/></g></g></g><g fill="#545454"><g><g><path d="M 10.480469 -19.773438 L 0.421875 -19.773438 L 0.421875 -19.628906 C 1.582031 -19.488281 2.570312 -19.179688 2.570312 -18.160156 L 2.570312 -1.609375 C 2.570312 -0.59375 1.582031 -0.28125 0.421875 -0.140625 L 0.421875 0 L 7.597656 0 L 7.597656 -0.140625 C 6.441406 -0.28125 5.453125 -0.59375 5.453125 -1.609375 L 5.453125 -7.257812 L 9.179688 -7.257812 C 14.488281 -7.257812 17.9375 -10.082031 17.9375 -14.179688 C 17.9375 -17.9375 15.027344 -19.773438 10.480469 -19.773438 Z M 9.859375 -7.765625 C 8.53125 -7.765625 7.003906 -7.964844 5.453125 -8.390625 L 5.453125 -19.320312 L 8.980469 -19.320312 C 14.292969 -19.320312 15.109375 -16.15625 15.109375 -13.105469 C 15.109375 -8.8125 13.53125 -7.765625 9.859375 -7.765625 Z M 9.859375 -7.765625" transform="translate(133.651 320.216)"/></g></g></g><g fill="#545454"><g><g><path d="M 16.691406 -5.507812 C 14.601562 -2.230469 13.246094 -0.453125 9.347656 -0.453125 L 5.453125 -0.453125 L 5.453125 -18.160156 C 5.453125 -19.179688 6.441406 -19.488281 7.878906 -19.628906 L 7.878906 -19.773438 L 0.421875 -19.773438 L 0.421875 -19.628906 C 1.582031 -19.488281 2.570312 -19.179688 2.570312 -18.160156 L 2.570312 -2.175781 C 2.570312 -1.15625 1.582031 -0.566406 0.421875 -0.140625 L 0.421875 0 L 14.292969 0 L 15.253906 0.621094 L 15.421875 0 L 16.804688 -5.453125 Z M 16.691406 -5.507812" transform="translate(174.774 320.216)"/></g></g></g><g fill="#545454"><g><g><path d="M 11.917969 -20.167969 C 6.015625 -20.167969 1.269531 -16.242188 1.269531 -9.886719 C 1.269531 -3.53125 6.015625 0.394531 11.917969 0.394531 C 17.792969 0.394531 22.539062 -3.53125 22.539062 -9.886719 C 22.539062 -16.242188 17.792969 -20.167969 11.917969 -20.167969 Z M 13.050781 -0.113281 C 7.964844 -0.113281 4.320312 -5.875 4.320312 -11.582031 C 4.320312 -16.355469 6.863281 -19.660156 10.761719 -19.660156 C 15.84375 -19.660156 19.488281 -13.898438 19.488281 -8.21875 C 19.488281 -3.417969 16.945312 -0.113281 13.050781 -0.113281 Z M 13.050781 -0.113281" transform="translate(214.344 320.216)"/></g></g></g><g fill="#545454"><g><g><path d="M 15.703125 -3.726562 L 12.203125 -8.472656 C 15.675781 -9.320312 17.792969 -11.636719 17.792969 -14.574219 C 17.792969 -18.046875 14.886719 -19.773438 10.335938 -19.773438 L 0.421875 -19.773438 L 0.421875 -19.628906 C 1.582031 -19.488281 2.570312 -19.179688 2.570312 -18.160156 L 2.570312 -1.609375 C 2.570312 -0.59375 1.582031 -0.28125 0.421875 -0.140625 L 0.421875 0 L 7.597656 0 L 7.597656 -0.140625 C 6.441406 -0.28125 5.453125 -0.59375 5.453125 -1.609375 L 5.453125 -8.105469 L 9.292969 -8.105469 L 14.800781 -0.480469 L 14.800781 0 L 19.914062 0 L 19.914062 -0.0859375 C 18.445312 -0.820312 17.371094 -1.441406 15.703125 -3.726562 Z M 5.453125 -9.234375 L 5.453125 -19.261719 L 8.8125 -19.261719 C 14.121094 -19.261719 14.96875 -16.355469 14.96875 -13.53125 C 14.96875 -9.601562 13.386719 -8.613281 9.886719 -8.613281 C 8.359375 -8.613281 6.949219 -8.8125 5.453125 -9.234375 Z M 5.453125 -9.234375" transform="translate(260.494 320.216)"/></g></g></g><g fill="#545454"><g><g><path d="M 19.347656 -3.558594 L 13.386719 -18.613281 C 12.796875 -20.082031 12.765625 -20.308594 12.765625 -20.535156 L 10.140625 -18.8125 L 9.6875 -18.5 L 9.746094 -17.878906 L 3.472656 -3.417969 C 2.429688 -0.988281 1.75 -0.453125 0.566406 -0.113281 L 0.566406 0 L 5.761719 0 L 5.761719 -0.113281 C 4.179688 -0.453125 3.050781 -0.960938 4.09375 -3.390625 L 4.71875 -4.800781 L 15.761719 -4.800781 L 16.324219 -3.390625 C 17.3125 -0.902344 16.183594 -0.28125 14.207031 -0.113281 L 14.207031 0 L 22.144531 0 L 22.144531 -0.113281 C 20.875 -0.28125 20.363281 -0.960938 19.347656 -3.558594 Z M 4.914062 -5.308594 L 10.449219 -18.078125 L 15.5625 -5.308594 Z M 4.914062 -5.308594" transform="translate(302.465 320.216)"/></g></g></g></svg>